<?xml version="1.0" encoding="UTF-8"?>
<svg width="154px" height="61px" viewBox="0 0 154 61" version="1.1" xmlns="http://www.w3.org/2000/svg" xmlns:xlink="http://www.w3.org/1999/xlink">
    <!-- Generator: Sketch 59 (86127) - https://sketch.com -->
    <title>Banner Logo</title>
    <desc>Created with Sketch.</desc>
    <g id="Page-1" stroke="none" stroke-width="1" fill="none" fill-rule="evenodd">
        <g id="Jovi_alt_2_logo">
            <path d="M121,22.4240006 L109.7215,52.5 L132.2785,52.5 L121,22.4240006 Z" id="Triangle" stroke="#91FFF8" fill="#91FFF8" transform="translate(121.000000, 37.000000) rotate(180.000000) translate(-121.000000, -37.000000) "></path>
            <g id="g233" fill="#FDA451" fill-rule="nonzero">
                <path d="M15.722055,60.53993 C12.567198,60.24506 9.269991,58.84092 6.733761,56.7122 C3.369663,53.88862 1.196351,49.58569 0.96376,45.2882 L0.90534,44.2087 L3.32895,44.2087 L5.75256,44.2087 L5.80548,44.47328 C5.83458,44.61881 5.8584,44.91861 5.8584,45.13953 C5.8584,46.15912 6.388901,48.15556 6.964785,49.30322 C8.5703,52.50279 11.511606,54.77432 15.028506,55.53072 C16.008243,55.74143 18.573473,55.74176 19.548294,55.53156 C23.894357,54.59323 27.326053,51.33089 28.489484,47.03166 L28.760733,46.02903 L28.783423,30.25987 L28.806113,14.4907 L17.33224,14.4907 L5.858388,14.4907 L5.858388,12.03537 L5.858388,9.58003 L19.786055,9.58003 L33.713721,9.58003 L33.713721,27.4827 C33.713721,42.96671 33.696441,45.5172 33.585796,46.36123 C32.953519,51.18451 30.016207,55.67159 25.82913,58.21042 C22.761898,60.07023 19.280866,60.87255 15.722055,60.53993 L15.722055,60.53993 Z M70.078054,60.53908 C64.820642,60.13895 59.871815,58.15516 55.557721,54.71849 C54.53225,53.90159 52.483836,51.85412 51.649916,50.8125 C48.490563,46.86626 46.58936,42.42344 45.934597,37.45668 C45.738155,35.96654 45.738155,32.55378 45.934597,31.06365 C46.585555,26.12576 48.485674,21.67095 51.61069,17.75612 C52.481742,16.66492 54.509933,14.63681 55.598923,13.76804 C56.713542,12.87883 58.493851,11.69878 59.723248,11.0343 C64.675517,8.35763 70.407088,7.35462 75.98963,8.18772 C84.76316,9.49703 92.46975,15.35711 96.15384,23.52055 C97.77089,27.10371 98.42787,30.20643 98.42787,34.26016 C98.42787,36.46665 98.32059,37.67332 97.96873,39.42483 C96.69405,45.76993 92.79404,51.81523 87.56172,55.55646 C82.29115,59.32504 76.35487,61.0168 70.078054,60.53908 L70.078054,60.53908 Z M74.56036,55.59512 C82.07991,54.71551 88.80431,49.61933 91.81934,42.51516 C93.02687,39.66991 93.5516,36.85557 93.46107,33.70983 C93.36617,30.41168 92.76117,27.94944 91.32873,25.0315 C89.13776,20.56836 85.57955,17.05816 81.04008,14.88166 C71.131686,10.13097 59.059774,14.042 53.449935,23.82025 C50.700597,28.61249 49.957356,34.10508 51.326072,39.51569 C52.575297,44.45396 55.72178,48.95595 60.002721,51.93024 C62.77803,53.85847 66.252451,55.19026 69.549546,55.5897 C70.857283,55.74811 73.230441,55.75069 74.56036,55.5947 L74.56036,55.59512 Z M118.16628,58.83589 C118.14408,58.77719 114.58946,47.68003 110.26717,34.1757 L102.40847,9.62237 L105.07333,9.59997 C106.53901,9.58767 107.75495,9.59397 107.77543,9.61487 C107.81423,9.65367 108.16367,10.76116 115.45793,33.96404 C117.90998,41.76396 120.10958,48.75531 120.34593,49.50038 C120.67539,50.53894 120.79204,50.81553 120.84585,50.68571 C120.88445,50.59261 123.13047,43.46788 125.83697,34.85304 C128.54347,26.23821 131.43488,17.03706 132.26231,14.40604 L133.76674,9.62238 L136.45605,9.59998 L139.14537,9.57758 L139.09257,9.81161 C139.06357,9.94033 135.51899,21.0375 131.21582,34.47198 L123.39185,58.89832 L120.79926,58.92072 C118.77064,58.93822 118.19789,58.91979 118.16628,58.83602 L118.16628,58.83589 Z M148.43705,34.26037 L148.43705,9.58003 L150.89239,9.58003 L153.34772,9.58003 L153.34772,34.26037 L153.34772,58.9407 L150.89239,58.9407 L148.43705,58.9407 L148.43705,34.26037 Z M122.67304,21.0323 C122.30017,21.003 122.27124,20.9851 122.32192,20.81472 C122.35232,20.7126 123.04541,18.54476 123.86219,15.99732 L125.34724,11.36561 L125.08167,11.06313 C123.84535,9.65504 124.20262,7.41474 125.81411,6.47035 C126.02213,6.34844 126.38575,6.20513 126.62216,6.15189 L127.05201,6.05509 L127.89714,3.4149 L128.74227,0.77471 L129.95366,0.77471 C130.61993,0.77471 131.16505,0.80181 131.16505,0.83481 C131.16505,0.86791 130.7441,2.20424 130.2296,3.80449 L129.29416,6.71403 L129.59094,7.04254 C130.63964,8.20333 130.63537,9.94541 129.58094,11.1125 C129.13758,11.60326 128.60282,11.88597 127.77522,12.06716 C127.57245,12.11156 127.47987,12.36595 126.12422,16.6036 L124.68803,21.09302 L123.8837,21.07862 C123.44132,21.07062 122.89651,21.04982 122.67302,21.03232 L122.67304,21.0323 Z" id="path235"></path>
            </g>
        </g>
    </g>
</svg>